<svg viewBox="0 0 24 24" fill="none" xmlns="http://www.w3.org/2000/svg">
<path d="M7.0752 14.1893L11.866 19.2662C14.0771 21.6094 16.2911 20.0443 19.0592 17.1108C19.9396 16.1779 19.5075 13.5116 19.5075 13.5116L18.4816 8.35025C18.4816 8.35025 18.129 7.16176 16.9916 7.58608C15.383 8.18615 16.9278 10.7779 16.5433 11.1853L12.4896 6.88948C12.2439 6.62913 11.5987 6.27139 10.9836 6.92327C10.3685 7.57514 10.706 8.25882 10.9517 8.51917L9.47763 6.95705C9.23195 6.6967 8.5868 6.33896 7.97165 6.99084C7.35651 7.64271 7.69409 8.32639 7.93977 8.58674L8.67682 9.3678C8.43114 9.10745 7.78599 8.74971 7.17084 9.40159C6.5557 10.0535 6.89328 10.7371 7.13896 10.9975L8.61306 12.5596C8.36737 12.2993 7.72222 11.9415 7.10708 12.5934C6.49194 13.2453 6.82952 13.929 7.0752 14.1893Z" fill="#101012"/>
<path d="M13.5314 11.2529L10.9517 8.51917M10.9517 8.51917L9.47763 6.95705C9.23195 6.6967 8.5868 6.33896 7.97165 6.99084C7.35651 7.64271 7.69409 8.32639 7.93977 8.58674L11.9935 12.8826L8.67682 9.3678C8.43114 9.10745 7.78599 8.74971 7.17084 9.40159C6.5557 10.0535 6.89328 10.7371 7.13896 10.9975L10.4557 14.5123L8.61306 12.5596C8.36737 12.2993 7.72222 11.9415 7.10708 12.5934C6.49194 13.2453 6.82952 13.929 7.0752 14.1893L11.866 19.2662C14.0771 21.6094 16.2911 20.0443 19.0592 17.1108C19.9396 16.1779 19.5075 13.5116 19.5075 13.5116L18.4816 8.35025C18.4816 8.35025 18.129 7.16176 16.9916 7.58608C15.383 8.18615 16.9278 10.7779 16.5433 11.1853L12.4896 6.88948C12.2439 6.62913 11.5987 6.27139 10.9836 6.92327C10.3685 7.57514 10.706 8.25882 10.9517 8.51917Z" stroke="#F8F9FA" stroke-width="1.2" stroke-linecap="round" stroke-linejoin="round"/>
<path d="M3.94819 14.1893L8.73899 19.2662C10.9501 21.6094 13.1641 20.0443 15.9322 17.1108C16.8126 16.1779 16.3804 13.5116 16.3804 13.5116L15.3546 8.35025C15.3546 8.35025 15.002 7.16176 13.8645 7.58608C12.2559 8.18615 13.8008 10.7779 13.4163 11.1853L9.36256 6.88948C9.11688 6.62913 8.47173 6.27139 7.85659 6.92327C7.24145 7.57514 7.57903 8.25882 7.82471 8.51917L6.35061 6.95705C6.10493 6.6967 5.45978 6.33896 4.84464 6.99084C4.2295 7.64271 4.56708 8.32639 4.81276 8.58674L5.5498 9.3678C5.30412 9.10745 4.65897 8.74971 4.04383 9.40159C3.42869 10.0535 3.76627 10.7371 4.01195 10.9975L5.48604 12.5596C5.24036 12.2993 4.59521 11.9415 3.98007 12.5934C3.36493 13.2453 3.7025 13.929 3.94819 14.1893Z" fill="#101012"/>
<path d="M10.4044 11.2529L7.82471 8.51917M7.82471 8.51917L6.35061 6.95705C6.10493 6.6967 5.45978 6.33896 4.84464 6.99084C4.2295 7.64271 4.56708 8.32639 4.81276 8.58674L8.86651 12.8826L5.5498 9.3678C5.30412 9.10745 4.65897 8.74971 4.04383 9.40159C3.42869 10.0535 3.76627 10.7371 4.01195 10.9975L7.32866 14.5123L5.48604 12.5596C5.24036 12.2993 4.59521 11.9415 3.98007 12.5934C3.36493 13.2453 3.7025 13.929 3.94819 14.1893L8.73899 19.2662C10.9501 21.6094 13.1641 20.0443 15.9322 17.1108C16.8126 16.1779 16.3804 13.5116 16.3804 13.5116L15.3546 8.35025C15.3546 8.35025 15.002 7.16176 13.8645 7.58608C12.2559 8.18615 13.8008 10.7779 13.4163 11.1853L9.36256 6.88948C9.11688 6.62913 8.47173 6.27139 7.85659 6.92327C7.24145 7.57514 7.57903 8.25882 7.82471 8.51917Z" stroke="#F8F9FA" stroke-width="1.2" stroke-linecap="round" stroke-linejoin="round"/>
</svg>
