<svg width="17" height="17" viewBox="0 0 17 17" fill="none" xmlns="http://www.w3.org/2000/svg">
<path fill-rule="evenodd" clip-rule="evenodd" d="M16.1801 8.68179C16.1801 8.11451 16.1292 7.56905 16.0346 7.04541H8.5V10.14H12.8055C12.62 11.14 12.0564 11.9873 11.2091 12.5546V14.5619H13.7946C15.3073 13.1691 16.1801 11.1182 16.1801 8.68179Z" fill="#4285F4"/>
<path fill-rule="evenodd" clip-rule="evenodd" d="M8.5 16.5001C10.66 16.5001 12.4709 15.7837 13.7946 14.5619L11.2091 12.5546C10.4927 13.0346 9.57637 13.3182 8.5 13.3182C6.41634 13.3182 4.65268 11.9109 4.02359 10.02H1.35083V12.0928C2.66721 14.7073 5.37269 16.5001 8.5 16.5001Z" fill="#34A853"/>
<path fill-rule="evenodd" clip-rule="evenodd" d="M4.02358 10.02C3.86358 9.54 3.77267 9.02727 3.77267 8.49999C3.77267 7.97271 3.86358 7.45998 4.02358 6.97998V4.90723H1.35083C0.809003 5.98724 0.499908 7.20907 0.499908 8.49999C0.499908 9.79091 0.809003 11.0127 1.35083 12.0928L4.02358 10.02Z" fill="#FBBC05"/>
<path fill-rule="evenodd" clip-rule="evenodd" d="M8.5 3.68185C9.67455 3.68185 10.7291 4.08549 11.5582 4.87823L13.8528 2.58366C12.4673 1.29274 10.6564 0.5 8.5 0.5C5.37269 0.5 2.66721 2.29275 1.35083 4.90732L4.02359 6.98007C4.65268 5.08914 6.41634 3.68185 8.5 3.68185Z" fill="#EA4335"/>
</svg>
