<svg viewBox="0 0 20 20" fill="none" xmlns="http://www.w3.org/2000/svg">
<path d="M13.9991 6.70878C13.9993 6.93857 13.9291 7.16325 13.7973 7.35437C13.6655 7.54549 13.4781 7.69447 13.2588 7.78244C13.0395 7.87042 12.7982 7.89344 12.5654 7.84859C12.3326 7.80373 12.1188 7.69303 11.951 7.53049C11.7833 7.36794 11.6691 7.16086 11.6229 6.93546C11.5767 6.71005 11.6007 6.47646 11.6917 6.26424C11.7828 6.05203 11.9368 5.87073 12.1343 5.74329C12.3318 5.61585 12.564 5.54801 12.8013 5.54834C13.1192 5.54834 13.4241 5.6706 13.6489 5.88823C13.8737 6.10585 14 6.40101 14 6.70878" fill="#F8F9FA"/>
<path d="M4 12.5161L8 8.64514L11.6 12.5161L13.6 10.1935L16 12.5161" stroke="#F8F9FA" stroke-linecap="round" stroke-linejoin="round"/>
<path d="M4 16V4H16V16H4Z" stroke="#F8F9FA" stroke-linejoin="round"/>
</svg>
