<svg width="189" height="36" viewBox="0 0 189 36" fill="none" xmlns="http://www.w3.org/2000/svg">
<path fill-rule="evenodd" clip-rule="evenodd" d="M20.5742 9.4307C20.5883 6.19577 17.5807 3.83263 14.515 4.66991C12.4184 5.24252 10.9571 7.17462 10.9474 9.38702L10.9288 13.6566L7.3255 14.6407C5.65228 15.0977 4.65931 16.8506 5.10765 18.5561L7.88741 29.1301C8.31064 30.74 9.87639 31.7484 11.4846 31.4468L27.4309 28.4561C29.0519 28.1521 30.1655 26.6211 29.9798 24.9518L28.6089 12.6287C28.3928 10.6866 26.5328 9.39501 24.6805 9.90087L20.5672 11.0242L20.5742 9.4307ZM15.353 7.85752C16.3566 7.58343 17.3412 8.35702 17.3365 9.41601L17.329 11.1446C17.3198 13.2525 19.2796 14.7924 21.2772 14.2468L25.405 13.1195L26.7521 25.2279L16.2314 27.2011L13.2777 15.9653C13.8297 15.3867 14.1624 14.6002 14.1661 13.7501L14.1851 9.40171C14.1883 8.67746 14.6666 8.04497 15.353 7.85752ZM10.9906 28.184L8.26123 17.8016L10.2646 17.2545L13.037 27.8002L10.9906 28.184Z" fill="#D2FA64"/>
<path d="M47.5 13.04L46.436 28.58C46.4173 28.86 46.3147 29 46.128 29H44.588C43.5427 29 42.796 28.7947 42.348 28.384C41.9 27.9733 41.676 27.3853 41.676 26.62C41.676 26.34 41.6853 25.92 41.704 25.36C41.7413 24.8 41.788 24.1467 41.844 23.4C41.9 22.6347 41.956 21.8133 42.012 20.936C42.0867 20.04 42.1613 19.144 42.236 18.248C42.3107 17.3333 42.376 16.428 42.432 15.532C42.5067 14.636 42.572 13.8053 42.628 13.04H38.148C37.9427 13.04 37.84 12.9093 37.84 12.648L37.924 11.08C37.9427 10.8373 37.98 10.604 38.036 10.38C38.1107 10.1373 38.2227 9.92267 38.372 9.736C38.5213 9.54933 38.708 9.4 38.932 9.288C39.1747 9.176 39.464 9.12 39.8 9.12H52.316C52.428 9.12 52.5307 9.148 52.624 9.204C52.7173 9.26 52.764 9.36267 52.764 9.512L52.652 11.164C52.6147 11.724 52.456 12.1813 52.176 12.536C51.9147 12.872 51.364 13.04 50.524 13.04H47.5ZM63.5145 25.528C63.5705 24.912 63.6265 24.268 63.6825 23.596C63.7571 22.924 63.8131 22.28 63.8505 21.664C63.9065 21.048 63.9531 20.4973 63.9905 20.012C64.0278 19.5267 64.0465 19.172 64.0465 18.948C64.0465 18.4627 63.9251 18.0333 63.6825 17.66C63.4585 17.268 63.0105 17.072 62.3385 17.072C61.4425 17.072 60.7145 17.492 60.1545 18.332C59.6131 19.172 59.2958 20.292 59.2025 21.692C59.1651 22.084 59.1185 22.6347 59.0625 23.344C59.0065 24.0347 58.9505 24.744 58.8945 25.472C58.8385 26.1813 58.7825 26.8253 58.7265 27.404C58.6891 27.964 58.6705 28.3093 58.6705 28.44C58.6705 28.664 58.6238 28.8133 58.5305 28.888C58.4558 28.9627 58.2971 29 58.0545 29H57.0465C56.4678 29 55.9918 28.944 55.6185 28.832C55.2638 28.7013 54.9745 28.524 54.7505 28.3C54.5451 28.076 54.3958 27.8053 54.3025 27.488C54.2278 27.152 54.1905 26.7693 54.1905 26.34C54.1905 25.9293 54.2185 25.36 54.2745 24.632C54.3491 23.8853 54.4425 22.868 54.5545 21.58C54.6665 20.2733 54.7971 18.612 54.9465 16.596C55.0958 14.58 55.2545 12.0787 55.4225 9.092C55.4411 8.68133 55.4878 8.43867 55.5625 8.364C55.6185 8.308 55.7678 8.28 56.0105 8.28H57.1025C57.6625 8.28 58.1291 8.34533 58.5025 8.476C58.8758 8.60667 59.1745 8.784 59.3985 9.008C59.6225 9.232 59.7811 9.49333 59.8745 9.792C59.9678 10.072 60.0145 10.3707 60.0145 10.688C60.0145 11.024 59.9771 11.6493 59.9025 12.564C59.8465 13.4787 59.7718 14.552 59.6785 15.784C60.2385 14.8507 60.8545 14.2067 61.5265 13.852C62.2171 13.4973 63.0851 13.32 64.1305 13.32C64.9145 13.32 65.5958 13.404 66.1745 13.572C66.7531 13.74 67.2291 14.0293 67.6025 14.44C67.9945 14.832 68.2838 15.3547 68.4705 16.008C68.6571 16.6427 68.7505 17.436 68.7505 18.388C68.7505 18.6867 68.7225 19.2 68.6665 19.928C68.6105 20.656 68.5358 21.4867 68.4425 22.42C68.3678 23.3533 68.2838 24.3333 68.1905 25.36C68.1158 26.368 68.0505 27.292 67.9945 28.132C67.9758 28.3373 67.9571 28.496 67.9385 28.608C67.9198 28.72 67.8825 28.804 67.8265 28.86C67.7891 28.916 67.7238 28.9533 67.6305 28.972C67.5371 28.9907 67.4065 29 67.2385 29H66.3425C65.7451 29 65.2598 28.944 64.8865 28.832C64.5131 28.72 64.2238 28.5613 64.0185 28.356C63.8131 28.1507 63.6638 27.8987 63.5705 27.6C63.4958 27.2827 63.4585 26.928 63.4585 26.536C63.4585 26.3493 63.4585 26.172 63.4585 26.004C63.4771 25.836 63.4958 25.6773 63.5145 25.528ZM77.4416 15.98C77.4416 16.372 77.4043 16.9227 77.3296 17.632C77.2736 18.3413 77.2083 19.0787 77.1336 19.844C77.0776 20.6093 77.0123 21.328 76.9376 22C76.8816 22.672 76.8536 23.1573 76.8536 23.456C76.8536 24.1093 77.0123 24.6227 77.3296 24.996C77.6656 25.3507 78.123 25.528 78.7016 25.528C79.2056 25.528 79.6256 25.332 79.9616 24.94C80.3163 24.5293 80.5963 24.0067 80.8016 23.372C81.0256 22.7187 81.203 21.9813 81.3336 21.16C81.4643 20.3387 81.5576 19.508 81.6136 18.668C81.6883 17.828 81.7443 17.016 81.7816 16.232C81.8376 15.4293 81.8936 14.7387 81.9496 14.16C81.9683 14.0107 82.0243 13.88 82.1176 13.768C82.211 13.656 82.3603 13.6 82.5656 13.6H83.5736C84.1523 13.6 84.619 13.6653 84.9736 13.796C85.347 13.908 85.6363 14.076 85.8416 14.3C86.0656 14.524 86.215 14.804 86.2896 15.14C86.383 15.4573 86.4296 15.8307 86.4296 16.26C86.4296 16.54 86.411 16.9413 86.3736 17.464C86.355 17.968 86.3083 18.6773 86.2336 19.592C86.159 20.488 86.0656 21.636 85.9536 23.036C85.8603 24.4173 85.739 26.1347 85.5896 28.188C85.5523 28.58 85.5056 28.8133 85.4496 28.888C85.4123 28.9627 85.263 29 85.0016 29H83.9096C83.3496 29 82.883 28.9347 82.5096 28.804C82.155 28.6733 81.8656 28.5053 81.6416 28.3C81.4176 28.0947 81.259 27.852 81.1656 27.572C81.0723 27.292 81.0163 27.0027 80.9976 26.704C80.7176 27.1893 80.4003 27.6 80.0456 27.936C79.7096 28.272 79.355 28.5427 78.9816 28.748C78.6083 28.9347 78.2256 29.0653 77.8336 29.14C77.4416 29.2333 77.059 29.28 76.6856 29.28C75.9763 29.28 75.3416 29.168 74.7816 28.944C74.2216 28.7013 73.7456 28.384 73.3536 27.992C72.9803 27.6 72.691 27.1333 72.4856 26.592C72.2803 26.0507 72.1776 25.472 72.1776 24.856C72.1776 24.6133 72.187 24.2213 72.2056 23.68C72.243 23.12 72.2803 22.4947 72.3176 21.804C72.3736 21.1133 72.4296 20.3853 72.4856 19.62C72.5416 18.836 72.5883 18.0987 72.6256 17.408C72.6816 16.7173 72.7283 16.1107 72.7656 15.588C72.8216 15.0653 72.859 14.692 72.8776 14.468C72.915 14.132 72.9896 13.908 73.1016 13.796C73.2136 13.6653 73.4003 13.6 73.6616 13.6H74.5576C75.1363 13.6 75.6123 13.656 75.9856 13.768C76.359 13.88 76.6483 14.0387 76.8536 14.244C77.0776 14.4493 77.227 14.7013 77.3016 15C77.395 15.28 77.4416 15.6067 77.4416 15.98ZM94.5667 23.96C94.5107 24.8187 94.4454 25.64 94.3707 26.424C94.296 27.1893 94.24 27.8613 94.2027 28.44C94.184 28.664 94.1374 28.8133 94.0627 28.888C93.988 28.9627 93.8294 29 93.5867 29H92.5787C92 29 91.524 28.944 91.1507 28.832C90.796 28.7013 90.5067 28.524 90.2827 28.3C90.0774 28.076 89.928 27.8053 89.8347 27.488C89.76 27.152 89.7227 26.7693 89.7227 26.34C89.7227 26.06 89.732 25.668 89.7507 25.164C89.788 24.6413 89.844 23.932 89.9187 23.036C89.9934 22.1213 90.0774 20.9733 90.1707 19.592C90.2827 18.192 90.4134 16.4653 90.5627 14.412C90.5814 14.0013 90.628 13.7587 90.7027 13.684C90.7587 13.628 90.908 13.6 91.1507 13.6H92.2427C92.8027 13.6 93.26 13.6653 93.6147 13.796C93.9694 13.9267 94.2587 14.0947 94.4827 14.3C94.7067 14.5053 94.8654 14.748 94.9587 15.028C95.052 15.308 95.108 15.5973 95.1267 15.896C95.668 14.888 96.284 14.2067 96.9747 13.852C97.6654 13.4973 98.4774 13.32 99.4107 13.32C99.9147 13.32 100.4 13.3667 100.867 13.46C101.333 13.5533 101.753 13.712 102.127 13.936C102.5 14.16 102.817 14.4587 103.079 14.832C103.34 15.1867 103.527 15.644 103.639 16.204C104.217 15.1213 104.852 14.3747 105.543 13.964C106.233 13.5347 107.101 13.32 108.147 13.32C108.725 13.32 109.276 13.3853 109.799 13.516C110.34 13.628 110.807 13.8333 111.199 14.132C111.591 14.4307 111.899 14.8413 112.123 15.364C112.365 15.868 112.487 16.5027 112.487 17.268C112.487 17.8467 112.459 18.556 112.403 19.396C112.347 20.236 112.281 21.1507 112.207 22.14C112.132 23.1107 112.048 24.1187 111.955 25.164C111.861 26.1907 111.787 27.18 111.731 28.132C111.712 28.3373 111.693 28.496 111.675 28.608C111.656 28.72 111.619 28.804 111.563 28.86C111.525 28.916 111.46 28.9533 111.367 28.972C111.273 28.9907 111.143 29 110.975 29H110.079C109.481 29 108.996 28.944 108.623 28.832C108.249 28.72 107.96 28.5613 107.755 28.356C107.549 28.1507 107.4 27.8987 107.307 27.6C107.232 27.2827 107.195 26.928 107.195 26.536C107.195 26.2933 107.204 25.948 107.223 25.5C107.26 25.052 107.297 24.5667 107.335 24.044C107.391 23.5213 107.437 22.98 107.475 22.42C107.531 21.86 107.577 21.3467 107.615 20.88C107.671 20.3947 107.708 19.9747 107.727 19.62C107.764 19.2653 107.783 19.032 107.783 18.92C107.783 18.4347 107.68 18.0053 107.475 17.632C107.288 17.2587 106.915 17.072 106.355 17.072C105.869 17.072 105.449 17.2307 105.095 17.548C104.74 17.8653 104.441 18.304 104.199 18.864C103.956 19.424 103.76 20.0867 103.611 20.852C103.461 21.6173 103.359 22.448 103.303 23.344C103.265 23.9227 103.219 24.5853 103.163 25.332C103.107 26.0787 103.041 27.012 102.967 28.132C102.948 28.3373 102.929 28.496 102.911 28.608C102.892 28.72 102.855 28.804 102.799 28.86C102.761 28.916 102.696 28.9533 102.603 28.972C102.509 28.9907 102.379 29 102.211 29H101.315C100.717 29 100.232 28.944 99.8587 28.832C99.4854 28.72 99.196 28.5613 98.9907 28.356C98.7854 28.1507 98.636 27.8987 98.5427 27.6C98.468 27.2827 98.4307 26.928 98.4307 26.536C98.4307 26.1627 98.4587 25.6213 98.5147 24.912C98.5894 24.184 98.6547 23.4373 98.7107 22.672C98.7854 21.888 98.8507 21.1507 98.9067 20.46C98.9814 19.7507 99.0187 19.2373 99.0187 18.92C99.0187 18.4347 98.916 18.0053 98.7107 17.632C98.524 17.2587 98.1507 17.072 97.5907 17.072C97.0867 17.072 96.6574 17.2587 96.3027 17.632C95.948 18.0053 95.6494 18.5093 95.4067 19.144C95.1827 19.76 94.996 20.488 94.8467 21.328C94.716 22.168 94.6227 23.0453 94.5667 23.96ZM122.24 29.28C120.803 29.28 119.664 29.0747 118.824 28.664C117.984 28.2347 117.35 27.7027 116.92 27.068C116.491 26.4333 116.22 25.752 116.108 25.024C115.996 24.2773 115.94 23.596 115.94 22.98C115.94 22.7373 115.959 22.2613 115.996 21.552C116.052 20.8427 116.118 20.0213 116.192 19.088C116.267 18.1547 116.342 17.1653 116.416 16.12C116.491 15.056 116.566 14.0573 116.64 13.124C116.715 12.172 116.771 11.332 116.808 10.604C116.864 9.876 116.892 9.372 116.892 9.092C116.892 8.68133 116.92 8.448 116.976 8.392C117.032 8.31733 117.2 8.28 117.48 8.28H118.572C119.132 8.28 119.599 8.34533 119.972 8.476C120.346 8.60667 120.644 8.784 120.868 9.008C121.092 9.232 121.251 9.49333 121.344 9.792C121.438 10.072 121.484 10.38 121.484 10.716C121.484 11.0333 121.447 11.6493 121.372 12.564C121.316 13.4787 121.242 14.552 121.148 15.784C121.634 14.944 122.184 14.328 122.8 13.936C123.416 13.5253 124.228 13.32 125.236 13.32C126.935 13.32 128.232 13.88 129.128 15C130.043 16.12 130.5 17.7907 130.5 20.012C130.5 20.5907 130.454 21.2253 130.36 21.916C130.286 22.6067 130.136 23.2973 129.912 23.988C129.707 24.66 129.408 25.3227 129.016 25.976C128.643 26.6107 128.148 27.1707 127.532 27.656C126.916 28.1413 126.17 28.5333 125.292 28.832C124.434 29.1307 123.416 29.28 122.24 29.28ZM123.5 17.044C122.828 17.044 122.296 17.2213 121.904 17.576C121.531 17.9307 121.242 18.36 121.036 18.864C120.831 19.368 120.7 19.9093 120.644 20.488C120.588 21.048 120.56 21.5427 120.56 21.972C120.56 23.26 120.738 24.184 121.092 24.744C121.447 25.2853 121.979 25.556 122.688 25.556C123.36 25.556 123.883 25.3507 124.256 24.94C124.648 24.5107 124.938 24.0067 125.124 23.428C125.33 22.8493 125.46 22.2613 125.516 21.664C125.572 21.0667 125.6 20.6 125.6 20.264C125.6 19.2187 125.442 18.4253 125.124 17.884C124.807 17.324 124.266 17.044 123.5 17.044ZM139.981 13.32C141.568 13.32 142.735 13.6373 143.481 14.272C144.228 14.888 144.601 15.6813 144.601 16.652C144.601 17.4733 144.34 18.0987 143.817 18.528C143.313 18.9573 142.576 19.172 141.605 19.172C141.344 19.172 141.167 19.144 141.073 19.088C140.98 19.032 140.933 18.9293 140.933 18.78C140.933 18.612 140.915 18.4253 140.877 18.22C140.859 17.996 140.793 17.7907 140.681 17.604C140.588 17.3987 140.429 17.2307 140.205 17.1C140 16.9693 139.701 16.904 139.309 16.904C138.787 16.904 138.367 17.0347 138.049 17.296C137.732 17.5387 137.573 17.8467 137.573 18.22C137.573 18.612 137.732 18.9293 138.049 19.172C138.385 19.396 138.796 19.6107 139.281 19.816C139.785 20.0213 140.327 20.236 140.905 20.46C141.484 20.6653 142.016 20.9453 142.501 21.3C143.005 21.6547 143.416 22.1027 143.733 22.644C144.069 23.1667 144.237 23.848 144.237 24.688C144.237 26.032 143.761 27.1333 142.809 27.992C141.857 28.8507 140.429 29.28 138.525 29.28C138.003 29.28 137.396 29.2333 136.705 29.14C136.033 29.0653 135.389 28.944 134.773 28.776C134.157 28.5893 133.635 28.3467 133.205 28.048C132.795 27.7493 132.589 27.376 132.589 26.928C132.589 26.76 132.617 26.5547 132.673 26.312C132.748 26.0693 132.851 25.836 132.981 25.612C133.131 25.388 133.299 25.2013 133.485 25.052C133.691 24.884 133.933 24.8 134.213 24.8C134.437 24.8 134.643 24.856 134.829 24.968C135.016 25.08 135.231 25.2013 135.473 25.332C135.735 25.444 136.052 25.556 136.425 25.668C136.799 25.78 137.293 25.836 137.909 25.836C138.376 25.836 138.787 25.78 139.141 25.668C139.515 25.556 139.701 25.304 139.701 24.912C139.701 24.5573 139.552 24.2773 139.253 24.072C138.955 23.848 138.572 23.6427 138.105 23.456C137.657 23.2693 137.163 23.0733 136.621 22.868C136.099 22.644 135.604 22.3547 135.137 22C134.689 21.6453 134.316 21.1973 134.017 20.656C133.719 20.096 133.569 19.3773 133.569 18.5C133.569 17.548 133.756 16.7453 134.129 16.092C134.521 15.42 135.016 14.8787 135.613 14.468C136.229 14.0573 136.92 13.768 137.685 13.6C138.451 13.4133 139.216 13.32 139.981 13.32ZM170.041 19.872C169.985 20.432 169.901 21.0573 169.789 21.748C169.677 22.42 169.5 23.1107 169.257 23.82C169.033 24.5107 168.725 25.1827 168.333 25.836C167.941 26.4893 167.437 27.0773 166.821 27.6C166.205 28.104 165.459 28.5147 164.581 28.832C163.723 29.1307 162.696 29.28 161.501 29.28C160.288 29.28 159.252 29.112 158.393 28.776C157.535 28.4213 156.835 27.9453 156.293 27.348C155.752 26.732 155.36 26.0227 155.117 25.22C154.875 24.4173 154.753 23.5587 154.753 22.644C154.753 22.2333 154.772 21.6827 154.809 20.992C154.847 20.2827 154.893 19.5173 154.949 18.696C155.024 17.8747 155.099 17.0253 155.173 16.148C155.248 15.252 155.313 14.4027 155.369 13.6C155.444 12.7973 155.509 12.0787 155.565 11.444C155.621 10.7907 155.659 10.296 155.677 9.96C155.696 9.60533 155.743 9.38133 155.817 9.288C155.892 9.176 156.004 9.12 156.153 9.12H157.693C158.832 9.12 159.597 9.36267 159.989 9.848C160.381 10.3333 160.577 11.052 160.577 12.004C160.577 12.06 160.559 12.312 160.521 12.76C160.503 13.1893 160.465 13.7213 160.409 14.356C160.372 14.9907 160.325 15.6813 160.269 16.428C160.232 17.1747 160.185 17.884 160.129 18.556C160.092 19.228 160.055 19.816 160.017 20.32C159.999 20.824 159.989 21.16 159.989 21.328C159.989 21.6453 159.999 22.0093 160.017 22.42C160.055 22.8307 160.129 23.2227 160.241 23.596C160.372 23.9693 160.568 24.2867 160.829 24.548C161.109 24.7907 161.501 24.912 162.005 24.912C162.64 24.912 163.153 24.6973 163.545 24.268C163.956 23.8387 164.264 23.3253 164.469 22.728C164.693 22.1307 164.843 21.524 164.917 20.908C165.011 20.292 165.076 19.788 165.113 19.396C165.188 18.444 165.263 17.464 165.337 16.456C165.431 15.448 165.505 14.5053 165.561 13.628C165.636 12.7507 165.692 11.9853 165.729 11.332C165.767 10.6787 165.785 10.2307 165.785 9.988C165.785 9.61467 165.813 9.38133 165.869 9.288C165.925 9.176 166.047 9.12 166.233 9.12H167.773C168.408 9.12 168.903 9.176 169.257 9.288C169.631 9.4 169.911 9.54933 170.097 9.736C170.284 9.92267 170.396 10.1373 170.433 10.38C170.489 10.6227 170.517 10.8747 170.517 11.136C170.517 11.3787 170.499 11.836 170.461 12.508C170.443 13.18 170.415 13.9453 170.377 14.804C170.34 15.6627 170.293 16.5493 170.237 17.464C170.181 18.3787 170.116 19.1813 170.041 19.872ZM176.794 29C175.73 29 174.974 28.7947 174.526 28.384C174.097 27.9547 173.882 27.3293 173.882 26.508C173.882 26.2653 173.892 25.8827 173.91 25.36C173.948 24.8187 173.994 24.184 174.05 23.456C174.106 22.728 174.162 21.9347 174.218 21.076C174.293 20.2173 174.368 19.34 174.442 18.444C174.536 17.3427 174.61 16.4 174.666 15.616C174.741 14.8133 174.797 14.132 174.834 13.572C174.872 12.9933 174.9 12.5173 174.918 12.144C174.956 11.752 174.974 11.416 174.974 11.136C174.993 10.8373 175.002 10.5667 175.002 10.324C175.021 10.0813 175.03 9.82 175.03 9.54C175.03 9.39067 175.077 9.288 175.17 9.232C175.264 9.15733 175.357 9.12 175.45 9.12C175.936 9.12 176.468 9.11067 177.046 9.092C177.625 9.05467 178.204 9.01733 178.782 8.98C179.361 8.94267 179.921 8.91467 180.462 8.896C181.004 8.85867 181.48 8.84 181.89 8.84C183.085 8.84 184.112 8.98933 184.97 9.288C185.829 9.568 186.52 9.988 187.042 10.548C187.584 11.0893 187.976 11.752 188.218 12.536C188.48 13.32 188.61 14.216 188.61 15.224C188.61 16.3253 188.461 17.3893 188.162 18.416C187.882 19.424 187.434 20.32 186.818 21.104C186.202 21.888 185.409 22.5133 184.438 22.98C183.468 23.4467 182.31 23.68 180.966 23.68C180.164 23.68 179.482 23.596 178.922 23.428L178.53 28.58C178.512 28.7293 178.474 28.8413 178.418 28.916C178.362 28.972 178.25 29 178.082 29H176.794ZM181.33 13.04C181.088 13.04 180.817 13.0587 180.518 13.096C180.22 13.1147 179.902 13.1427 179.566 13.18C179.529 13.964 179.482 14.916 179.426 16.036C179.37 17.156 179.296 18.332 179.202 19.564C179.482 19.6387 179.753 19.6947 180.014 19.732C180.294 19.7507 180.546 19.76 180.77 19.76C181.424 19.76 181.946 19.6107 182.338 19.312C182.749 18.9947 183.066 18.612 183.29 18.164C183.514 17.716 183.664 17.2493 183.738 16.764C183.813 16.2787 183.85 15.8587 183.85 15.504C183.85 14.7013 183.664 14.0947 183.29 13.684C182.936 13.2547 182.282 13.04 181.33 13.04Z" fill="#D2FA64"/>
</svg>
