<svg viewBox="0 0 24 24" fill="none" xmlns="http://www.w3.org/2000/svg">
<path d="M11 17.5C11 17.2034 11.0879 16.9134 11.2527 16.6668C11.4175 16.4201 11.6517 16.2279 11.9257 16.1143C12.1997 16.0007 12.5012 15.971 12.7922 16.0287C13.0831 16.0865 13.3504 16.2293 13.5602 16.4389C13.7701 16.6486 13.913 16.9157 13.971 17.2066C14.029 17.4975 13.9995 17.7991 13.8862 18.0732C13.7728 18.3473 13.5808 18.5816 13.3342 18.7466C13.0877 18.9116 12.7978 18.9998 12.5012 19C12.1035 18.9997 11.7222 18.8415 11.4409 18.5603C11.1597 18.2791 11.0016 17.8977 11.0012 17.5" fill="#C1C2C5"/>
<path d="M11 11.5C11 11.2033 11.088 10.9133 11.2528 10.6666C11.4176 10.42 11.6519 10.2277 11.926 10.1142C12.2001 10.0007 12.5017 9.97094 12.7926 10.0288C13.0836 10.0867 13.3509 10.2296 13.5607 10.4393C13.7704 10.6491 13.9133 10.9164 13.9712 11.2074C14.0291 11.4983 13.9994 11.7999 13.8858 12.074C13.7723 12.3481 13.58 12.5824 13.3334 12.7472C13.0867 12.912 12.7967 13 12.5 13C12.1023 12.9997 11.7209 12.8415 11.4397 12.5603C11.1585 12.2791 11.0003 11.8977 11 11.5Z" fill="#C1C2C5"/>
<path d="M11 5.5C11 5.20333 11.088 4.91332 11.2528 4.66665C11.4176 4.41997 11.6519 4.22771 11.926 4.11418C12.2001 4.00065 12.5017 3.97094 12.7926 4.02882C13.0836 4.0867 13.3509 4.22956 13.5607 4.43934C13.7704 4.64912 13.9133 4.91639 13.9712 5.20736C14.0291 5.49834 13.9994 5.79994 13.8858 6.07403C13.7723 6.34811 13.58 6.58238 13.3334 6.74721C13.0867 6.91203 12.7967 7 12.5 7C12.1023 6.99967 11.7209 6.84153 11.4397 6.5603C11.1585 6.27907 11.0003 5.89773 11 5.5Z" fill="#C1C2C5"/>
</svg>
