<svg viewBox="0 0 24 24" fill="none" xmlns="http://www.w3.org/2000/svg">
<path fill-rule="evenodd" clip-rule="evenodd" d="M10.9369 5.74843C11.0977 5.15895 11.6331 4.75 12.2441 4.75C13.1375 4.75 13.7864 5.59952 13.5513 6.46145L13.2573 7.53954C12.9537 8.65279 13.7917 9.75 14.9456 9.75H17.8388C17.9917 9.75 18.1087 9.88593 18.086 10.0371L16.8967 17.9659C16.8772 18.0958 16.7605 18.1884 16.6296 18.178L9.25 17.5876V9.58545C9.7047 9.37271 10.0587 8.96849 10.1973 8.46046L10.9369 5.74843ZM8.5 8.25H8.50893C8.62167 8.25 8.72046 8.17454 8.75012 8.06578L9.48977 5.35376C9.82851 4.11168 10.9567 3.25 12.2441 3.25C14.1266 3.25 15.4938 5.03998 14.9984 6.85612L14.7044 7.93422C14.661 8.09326 14.7808 8.25 14.9456 8.25H17.8388C18.9087 8.25 19.7282 9.20154 19.5695 10.2596L18.3801 18.1884C18.2437 19.0978 17.4266 19.7465 16.5099 19.6732L5.86045 18.8212C4.95097 18.7485 4.25 17.9892 4.25 17.0768V10C4.25 9.0335 5.0335 8.25 6 8.25H8.5ZM7.75 9.75V17.4676L5.98006 17.326L5.92025 18.0736L5.98006 17.326C5.85014 17.3156 5.75 17.2071 5.75 17.0768V10C5.75 9.86193 5.86193 9.75 6 9.75H7.75Z" fill="#F8F9FA"/>
</svg>
